<svg width="10" height="10" viewBox="0 0 10 10" fill="none" xmlns="http://www.w3.org/2000/svg">
<path d="M9.4997 1.26316L0.499443 1.26316C0.40832 1.26345 0.319 1.28858 0.241098 1.33585C0.163196 1.38313 0.0996613 1.45075 0.0573332 1.53145C0.0150051 1.61214 -0.00451381 1.70286 0.00087789 1.79382C0.00626959 1.88478 0.0363673 1.97255 0.0879318 2.04769L4.58806 8.54787C4.77456 8.81738 5.22358 8.81738 5.41058 8.54787L9.91071 2.04769C9.9628 1.97271 9.99335 1.8849 9.99903 1.79378C10.0047 1.70266 9.98532 1.61173 9.94295 1.53087C9.90059 1.45 9.83687 1.38229 9.75872 1.33509C9.68058 1.2879 9.59099 1.26302 9.4997 1.26316Z" fill="#FF9B0B"/>
</svg>
