<svg width="30" height="30" viewBox="0 0 30 30" fill="none" xmlns="http://www.w3.org/2000/svg">
<path d="M2.27853 0.162608L29.0946 13.5064C29.3657 13.6411 29.5945 13.8528 29.7548 14.1171C29.915 14.3815 30 14.6876 30 15.0001C30 15.3126 29.915 15.6187 29.7548 15.8831C29.5945 16.1474 29.3657 16.3591 29.0946 16.4938L2.27853 29.8376C2.00363 29.9746 1.69668 30.0265 1.39422 29.9873C1.09176 29.948 0.806511 29.8191 0.572415 29.616C0.338319 29.4129 0.165232 29.1441 0.0737469 28.8416C-0.0177383 28.5391 -0.0237698 28.2156 0.0563701 27.9096L2.73925 17.6763C2.77209 17.5509 2.83969 17.4383 2.93361 17.3526C3.02754 17.2669 3.14364 17.2118 3.26743 17.1943L16.2618 15.3576C16.3162 15.3496 16.3676 15.3271 16.411 15.2923C16.4545 15.2575 16.4886 15.2116 16.51 15.159L16.5329 15.0769C16.543 15.003 16.5287 14.9277 16.4924 14.8633C16.4561 14.7988 16.4 14.7491 16.3331 14.722L16.2631 14.7022L3.28143 12.8655C3.15786 12.8477 3.04204 12.7926 2.94836 12.7069C2.85469 12.6212 2.78728 12.5087 2.75452 12.3835L0.0563701 2.09195C-0.0240944 1.78588 -0.0183084 1.4622 0.0730389 1.15945C0.164386 0.856712 0.337445 0.587667 0.571603 0.384365C0.805761 0.181063 1.09115 0.0520719 1.39378 0.0127559C1.6964 -0.0265602 2.00351 0.0254556 2.27853 0.162608Z" fill="#FF9B0B"/>
</svg>
