<svg width="30" height="30" viewBox="0 0 30 30" fill="none" xmlns="http://www.w3.org/2000/svg">
<circle cx="13.4375" cy="13.4375" r="12.1875" fill="#FFC97A"/>
<path d="M29.3102 27.7036L23.2081 21.6157C25.3617 19.0517 26.4424 15.7552 26.2246 12.4139C26.0068 9.07251 24.5075 5.94421 22.0393 3.68142C19.5712 1.41863 16.3247 0.196053 12.977 0.268685C9.62936 0.341317 6.43897 1.70354 4.07126 4.07126C1.70355 6.43897 0.341317 9.62936 0.268685 12.977C0.196053 16.3247 1.41863 19.5712 3.68142 22.0393C5.94421 24.5075 9.07251 26.0068 12.4139 26.2246C15.7552 26.4424 19.0517 25.3617 21.6157 23.2081L27.7036 29.3102C27.9191 29.5185 28.2071 29.635 28.5069 29.635C28.8066 29.635 29.0947 29.5185 29.3102 29.3102C29.5219 29.0964 29.6406 28.8077 29.6406 28.5069C29.6406 28.206 29.5219 27.9174 29.3102 27.7036ZM2.57678 13.287C2.57678 11.1688 3.20493 9.09804 4.38179 7.33674C5.55865 5.57545 7.23136 4.20269 9.18841 3.39205C11.1455 2.58142 13.2989 2.36932 15.3765 2.78258C17.4541 3.19584 19.3625 4.21589 20.8603 5.71375C22.3582 7.2116 23.3783 9.11999 23.7915 11.1976C24.2048 13.2752 23.9927 15.4286 23.182 17.3857C22.3714 19.3427 20.9986 21.0154 19.2373 22.1923C17.4761 23.3692 15.4053 23.9973 13.287 23.9973C10.4477 23.9936 7.72562 22.864 5.71787 20.8562C3.71011 18.8485 2.58051 16.1264 2.57678 13.287Z" fill="#FFC97A"/>
</svg>
