<svg width="32" height="32" viewBox="0 0 32 32" fill="none" xmlns="http://www.w3.org/2000/svg">
<g clip-path="url(#clip0_147_1899)">
<path d="M19.0173 31.9925C9.92879 31.9925 9.85825 31.6154 8.73279 30.7679C8.13579 30.3189 7.00932 30.0074 2.89432 29.7394C2.59532 29.7199 2.31182 29.6054 2.12132 29.3744C2.03382 29.2679 -0.0221825 26.2694 -0.0221825 21.4674C-0.0221825 16.7349 1.44932 14.5774 1.51229 14.4769C1.60217 14.3332 1.7271 14.2148 1.87535 14.1326C2.02361 14.0505 2.19031 14.0074 2.35979 14.0074C5.73829 14.0074 10.4218 9.69493 13.5708 2.16643C14.1153 0.864431 14.2273 0.0084629 16.2278 0.0084629C17.3653 0.0084629 18.6403 0.822964 19.2708 1.86796C20.5618 4.00296 19.9063 8.58849 19.2993 11.039C21.3618 11.0225 25.0953 10.994 26.8718 10.994C29.3428 10.994 30.9778 12.4675 31.0283 14.622C31.0443 15.333 30.9513 16.2415 30.7453 16.7105C31.2888 17.253 31.9908 18.0716 32.0213 19.1251C32.0598 20.4846 31.1688 21.5201 30.6008 22.1146C30.7308 22.5101 30.9918 23.0346 30.9668 23.6616C30.9038 25.2036 29.7138 26.1976 28.9718 26.7161C29.0328 27.1366 29.0808 27.9331 28.9458 28.5481C28.4108 31.0051 24.8083 31.9925 19.0173 31.9925Z" fill="#FFC97A"/>
</g>
<defs>
<clipPath id="clip0_147_1899">
<rect width="32" height="32" fill="white" transform="translate(31.9998 32) rotate(-180)"/>
</clipPath>
</defs>
</svg>
