<svg width="30" height="30" viewBox="0 0 30 30" fill="none" xmlns="http://www.w3.org/2000/svg">
<path d="M22.6518 29.2107C22.9008 28.9622 23.0984 28.6669 23.2333 28.3419C23.3681 28.0169 23.4375 27.6684 23.4375 27.3165C23.4375 26.9647 23.3681 26.6162 23.2333 26.2912C23.0984 25.9662 22.9008 25.6709 22.6518 25.4224L12.2271 14.9977L22.6518 4.57295C23.1541 4.07059 23.4364 3.38923 23.4364 2.67878C23.4364 1.96832 23.1541 1.28696 22.6518 0.784592C22.1494 0.282223 21.468 0 20.7576 0C20.0471 0 19.3658 0.282223 18.8634 0.784592L6.53109 13.1169C6.28201 13.3655 6.08441 13.6607 5.94958 13.9858C5.81475 14.3108 5.74536 14.6592 5.74536 15.0111C5.74536 15.363 5.81475 15.7114 5.94958 16.0364C6.08441 16.3615 6.28201 16.6567 6.53109 16.9053L18.8634 29.2376C19.8844 30.2586 21.6039 30.2586 22.6518 29.2107Z" fill="#FF9B0B"/>
</svg>
