<svg width="30" height="30" viewBox="0 0 30 30" fill="none" xmlns="http://www.w3.org/2000/svg">
<rect x="15.052" y="17.4562" width="8.125" height="8.125" transform="rotate(44.7558 15.052 17.4562)" fill="#FFC97A"/>
<rect x="1.875" y="1.25" width="26.25" height="23.125" rx="4" fill="#FFC97A"/>
<path fill-rule="evenodd" clip-rule="evenodd" d="M24.9091 1.25C25.7886 1.25 26.632 1.59937 27.2539 2.22126C27.8758 2.84314 28.2252 3.6866 28.2252 4.56608V21.1465C28.2252 22.0259 27.8758 22.8694 27.2539 23.4913C26.632 24.1132 25.7886 24.4625 24.9091 24.4625L19.9366 24.4609L16.1331 28.2644C15.8476 28.5499 15.4677 28.7214 15.0648 28.7467C14.6618 28.7721 14.2635 28.6495 13.9445 28.402L13.7886 28.2644L9.98507 24.4609L5.01261 24.4625C4.13313 24.4625 3.28967 24.1132 2.66779 23.4913C2.0459 22.8694 1.69653 22.0259 1.69653 21.1465V4.56608C1.69653 3.6866 2.0459 2.84314 2.66779 2.22126C3.28967 1.59937 4.13313 1.25 5.01261 1.25H24.9091Z" stroke="#FFC97A" stroke-width="2" stroke-linecap="round" stroke-linejoin="round"/>
<path fill-rule="evenodd" clip-rule="evenodd" d="M14.9592 14.5142C15.7882 14.5142 16.6172 13.6852 16.6172 12.8562C16.6172 12.0272 15.7882 11.1982 14.9592 11.1982C14.1302 11.1982 13.3028 12.0272 13.3028 12.8562C13.3028 13.6852 14.1302 14.5142 14.9592 14.5142ZM8.32703 14.5142C9.15605 14.5142 9.98507 13.6852 9.98507 12.8562C9.98507 12.0272 9.15605 11.1982 8.32703 11.1982C7.49802 11.1982 6.67065 12.0272 6.67065 12.8562C6.67065 13.6852 7.49802 14.5142 8.32703 14.5142ZM21.5913 14.5142C22.4204 14.5142 23.2494 13.6852 23.2494 12.8562C23.2494 12.0272 22.4204 11.1982 21.5913 11.1982C20.7623 11.1982 19.935 12.0272 19.935 12.8562C19.935 13.6852 20.7623 14.5142 21.5913 14.5142Z" fill="white"/>
</svg>
