<svg width="28" height="30" viewBox="0 0 28 30" fill="none" xmlns="http://www.w3.org/2000/svg">
<path d="M13.8921 7.81416C13.937 7.77915 13.9703 7.73031 13.9873 7.67449C14.0043 7.61867 14.0042 7.55867 13.9871 7.5029C13.9699 7.44713 13.9365 7.39838 13.8916 7.3635C13.8466 7.32862 13.7924 7.30935 13.7365 7.30839L12.6504 7.2654C12.6451 7.26501 12.64 7.26302 12.6357 7.25965C12.6314 7.25629 12.6281 7.2517 12.6263 7.24643L12.251 6.18431C12.2321 6.13027 12.1979 6.08361 12.1529 6.05065C12.1079 6.01768 12.0543 6 11.9994 6C11.9445 6 11.8909 6.01768 11.8459 6.05065C11.8009 6.08361 11.7666 6.13027 11.7478 6.18431L11.3737 7.25023C11.3719 7.25549 11.3686 7.26008 11.3643 7.26344C11.36 7.26681 11.3549 7.26881 11.3496 7.26919L10.2635 7.31218C10.2076 7.31314 10.1534 7.33241 10.1084 7.36729C10.0635 7.40217 10.0301 7.45092 10.0129 7.50669C9.99577 7.56246 9.99569 7.62247 10.0127 7.67829C10.0297 7.73411 10.063 7.78295 10.1079 7.81795L10.9598 8.51971C10.9641 8.52323 10.9673 8.52798 10.969 8.53337C10.9707 8.53877 10.9709 8.54457 10.9695 8.55006L10.6762 9.63874C10.661 9.69417 10.6625 9.75317 10.6804 9.8077C10.6984 9.86223 10.7319 9.90965 10.7765 9.9435C10.8211 9.97735 10.8745 9.99599 10.9295 9.99689C10.9846 9.99779 11.0385 9.9809 11.0841 9.94852L11.9843 9.31631C11.9887 9.3131 11.994 9.31138 11.9994 9.31138C12.0048 9.31138 12.01 9.3131 12.0145 9.31631L12.9147 9.94852C12.9596 9.98201 13.0134 10 13.0686 10C13.1237 10 13.1775 9.98201 13.2224 9.94852C13.267 9.91499 13.3006 9.8678 13.3185 9.81346C13.3364 9.75912 13.3379 9.70028 13.3226 9.64506L13.0269 8.55259C13.0254 8.54711 13.0254 8.54125 13.0272 8.53582C13.0289 8.53039 13.0322 8.52565 13.0366 8.52224L13.8921 7.81416Z" fill="#FFC97A"/>
<path d="M9.75733 5.08186C9.85825 5.00309 9.9331 4.89321 9.9714 4.76761C10.0097 4.64201 10.0095 4.50701 9.97091 4.38152C9.93228 4.25603 9.85715 4.14636 9.75603 4.06787C9.65492 3.98939 9.5329 3.94603 9.40708 3.94388L6.96346 3.84715C6.95144 3.84628 6.93993 3.84179 6.93029 3.83422C6.92066 3.82664 6.91332 3.81631 6.90916 3.80447L6.06475 1.4147C6.02232 1.29311 5.94526 1.18813 5.84401 1.11395C5.74275 1.03978 5.62219 1 5.49864 1C5.3751 1 5.25453 1.03978 5.15328 1.11395C5.05202 1.18813 4.97496 1.29311 4.93254 1.4147L4.09084 3.81301C4.08668 3.82485 4.07934 3.83518 4.06971 3.84275C4.06007 3.85032 4.04856 3.85481 4.03654 3.85568L1.59292 3.95241C1.4671 3.95456 1.34508 3.99792 1.24397 4.07641C1.14285 4.15489 1.06772 4.26457 1.02909 4.39006C0.990472 4.51554 0.990298 4.65055 1.0286 4.77615C1.0669 4.90174 1.14175 5.01163 1.24266 5.0904L3.15955 6.66936C3.16915 6.67727 3.17632 6.68795 3.18018 6.70009C3.18404 6.71222 3.18442 6.72528 3.18127 6.73764L2.52149 9.18715C2.4873 9.31189 2.49062 9.44463 2.53098 9.56733C2.57134 9.69002 2.6468 9.79671 2.74708 9.87287C2.84736 9.94904 2.9676 9.99098 3.09144 9.99301C3.21528 9.99503 3.33671 9.95703 3.43921 9.88417L5.4647 8.46169C5.47468 8.45447 5.48652 8.4506 5.49864 8.4506C5.51077 8.4506 5.5226 8.45447 5.53258 8.46169L7.55807 9.88417C7.65919 9.95952 7.78018 10 7.90425 10C8.02833 10 8.14932 9.95952 8.25043 9.88417C8.35074 9.80872 8.42627 9.70256 8.46663 9.58029C8.50698 9.45801 8.51018 9.32564 8.47579 9.20138L7.81058 6.74333C7.80706 6.73099 7.80725 6.71781 7.81114 6.70559C7.81503 6.69337 7.82242 6.6827 7.8323 6.67505L9.75733 5.08186Z" fill="#FFC97A"/>
<path d="M7.83822 13.7212C7.9055 13.6687 7.9554 13.5955 7.98093 13.5117C8.00647 13.428 8.00635 13.338 7.9806 13.2543C7.95485 13.1707 7.90476 13.0976 7.83736 13.0452C7.76995 12.9929 7.6886 12.964 7.60472 12.9626L5.97564 12.8981C5.96763 12.8975 5.95995 12.8945 5.95353 12.8895C5.9471 12.8844 5.94221 12.8775 5.93944 12.8696L5.3765 11.2765C5.34822 11.1954 5.29684 11.1254 5.22934 11.076C5.16184 11.0265 5.08146 11 4.9991 11C4.91673 11 4.83635 11.0265 4.76885 11.076C4.70135 11.1254 4.64997 11.1954 4.62169 11.2765L4.06056 12.8753C4.05779 12.8832 4.0529 12.8901 4.04647 12.8952C4.04005 12.9002 4.03237 12.9032 4.02436 12.9038L2.39528 12.9683C2.3114 12.9697 2.23005 12.9986 2.16264 13.0509C2.09524 13.1033 2.04514 13.1764 2.0194 13.26C1.99365 13.3437 1.99353 13.4337 2.01907 13.5174C2.0446 13.6012 2.0945 13.6744 2.16178 13.7269L3.4397 14.7796C3.4461 14.7848 3.45088 14.792 3.45345 14.8001C3.45602 14.8081 3.45628 14.8169 3.45418 14.8251L3.01433 16.4581C2.99154 16.5413 2.99374 16.6298 3.02065 16.7116C3.04756 16.7933 3.09787 16.8645 3.16472 16.9152C3.23158 16.966 3.31174 16.994 3.3943 16.9953C3.47686 16.9967 3.55781 16.9714 3.62614 16.9228L4.97647 15.9745C4.98312 15.9696 4.99101 15.9671 4.9991 15.9671C5.00718 15.9671 5.01507 15.9696 5.02172 15.9745L6.37205 16.9228C6.43946 16.973 6.52012 17 6.60284 17C6.68555 17 6.76621 16.973 6.83362 16.9228C6.90049 16.8725 6.95085 16.8017 6.97775 16.7202C7.00465 16.6387 7.00679 16.5504 6.98386 16.4676L6.54039 14.8289C6.53804 14.8207 6.53817 14.8119 6.54076 14.8037C6.54335 14.7956 6.54828 14.7885 6.55487 14.7834L7.83822 13.7212Z" fill="#FFC97A"/>
<path d="M26.6923 27.6744C27.0408 28.5044 26.2009 29.3362 25.3743 28.9797L6.48035 20.8325C5.82969 20.5519 5.66918 19.7023 6.17262 19.2037L17.1016 8.37946C17.605 7.88084 18.453 8.04953 18.7273 8.70286L26.6923 27.6744Z" fill="#FFC97A"/>
</svg>
