<svg width="30" height="30" viewBox="0 0 30 30" fill="none" xmlns="http://www.w3.org/2000/svg">
<path d="M0.639622 12.6623L12.9885 1.20373C13.7291 0.516454 14.8661 0.48957 15.6384 1.14107L29.2896 12.6565C29.7401 13.0365 30 13.5959 30 14.1853V28C30 29.1046 29.1046 30 28 30H21C19.8954 30 19 29.1046 19 28V21C19 19.8954 18.1046 19 17 19H13C11.8954 19 11 19.8954 11 21V28C11 29.1046 10.1046 30 9 30H2C0.895431 30 0 29.1046 0 28V14.1284C0 13.572 0.231771 13.0408 0.639622 12.6623Z" fill="#FFC97A"/>
</svg>
