<svg width="25" height="25" viewBox="0 0 25 25" fill="none" xmlns="http://www.w3.org/2000/svg">
<path d="M12.5 23.2143C13.907 23.2143 15.3003 22.9372 16.6002 22.3987C17.9001 21.8603 19.0812 21.0711 20.0761 20.0761C21.0711 19.0812 21.8603 17.9001 22.3987 16.6002C22.9372 15.3003 23.2143 13.907 23.2143 12.5C23.2143 11.093 22.9372 9.69974 22.3987 8.39982C21.8603 7.0999 21.0711 5.91877 20.0761 4.92386C19.0812 3.92894 17.9001 3.13973 16.6002 2.60129C15.3003 2.06285 13.907 1.78571 12.5 1.78571C9.65839 1.78571 6.93317 2.91454 4.92386 4.92386C2.91454 6.93317 1.78571 9.65839 1.78571 12.5C1.78571 15.3416 2.91454 18.0668 4.92386 20.0761C6.93317 22.0855 9.65839 23.2143 12.5 23.2143ZM12.5 25C9.18479 25 6.00537 23.683 3.66116 21.3388C1.31696 18.9946 0 15.8152 0 12.5C0 9.18479 1.31696 6.00537 3.66116 3.66116C6.00537 1.31696 9.18479 0 12.5 0C15.8152 0 18.9946 1.31696 21.3388 3.66116C23.683 6.00537 25 9.18479 25 12.5C25 15.8152 23.683 18.9946 21.3388 21.3388C18.9946 23.683 15.8152 25 12.5 25Z" fill="#FFC97A"/>
<path d="M11.7188 5.46875C11.926 5.46875 12.1247 5.55929 12.2712 5.72046C12.4177 5.88162 12.5 6.1002 12.5 6.32812V13.2031C12.5 13.431 12.4177 13.6496 12.2712 13.8108C12.1247 13.972 11.926 14.0625 11.7188 14.0625C11.5115 14.0625 11.3128 13.972 11.1663 13.8108C11.0198 13.6496 10.9375 13.431 10.9375 13.2031V6.32812C10.9375 6.1002 11.0198 5.88162 11.1663 5.72046C11.3128 5.55929 11.5115 5.46875 11.7188 5.46875Z" fill="#FFC97A"/>
<path d="M11.7969 12.5H18.6719C19.2448 12.5 19.5312 12.7604 19.5312 13.2812C19.5312 13.8021 19.2448 14.0625 18.6719 14.0625H11.7969C11.224 14.0625 10.9375 13.8021 10.9375 13.2812C10.9375 12.7604 11.224 12.5 11.7969 12.5Z" fill="#FFC97A"/>
</svg>
