<svg width="25" height="25" viewBox="0 0 25 25" fill="none" xmlns="http://www.w3.org/2000/svg">
<path d="M12.8906 25L12.3377 24.3836C11.9922 24.0411 3.90625 14.589 3.90625 8.90411C3.90625 3.9726 7.91466 0 12.8906 0C17.8666 0 21.875 3.9726 21.875 8.90411C21.875 14.589 13.7891 24.0411 13.4435 24.4521L12.8906 25ZM12.8906 1.36986C8.67488 1.36986 5.28846 4.72603 5.28846 8.90411C5.28846 13.2877 11.0938 20.6849 12.8906 22.8767C14.6875 20.6849 20.4928 13.2877 20.4928 8.90411C20.4928 4.72603 17.1064 1.36986 12.8906 1.36986Z" fill="#FFC97A"/>
<path d="M12.8906 12.5C10.9219 12.5 9.375 10.9531 9.375 8.98438C9.375 7.01562 10.9219 5.46875 12.8906 5.46875C14.8594 5.46875 16.4062 7.01562 16.4062 8.98438C16.4062 10.9531 14.8594 12.5 12.8906 12.5ZM12.8906 6.875C11.6953 6.875 10.7812 7.78906 10.7812 8.98438C10.7812 10.1797 11.6953 11.0938 12.8906 11.0938C14.0859 11.0938 15 10.1797 15 8.98438C15 7.78906 14.0859 6.875 12.8906 6.875Z" fill="#FFC97A"/>
</svg>
