<svg width="147" height="150" viewBox="0 0 147 150" fill="none" xmlns="http://www.w3.org/2000/svg">
<circle cx="73.8807" cy="67.1642" r="66.1642" stroke="#FF9B0B" stroke-width="2"/>
<path d="M100.746 9.51163V21.8317C100.75 22.3975 100.901 22.9525 101.186 23.4416C101.47 23.9308 101.877 24.337 102.367 24.6199L112.839 30.8934C113.347 31.1881 113.923 31.3433 114.509 31.3433C115.096 31.3433 115.672 31.1881 116.179 30.8934L126.683 24.6199C127.173 24.337 127.581 23.9308 127.865 23.4416C128.149 22.9525 128.301 22.3975 128.304 21.8317V9.51163C128.301 8.94583 128.149 8.39078 127.865 7.90164C127.581 7.4125 127.173 7.0063 126.683 6.72341L116.13 0.449915C115.623 0.155227 115.047 0 114.46 0C113.874 0 113.298 0.155227 112.791 0.449915L102.367 6.72341C101.877 7.0063 101.47 7.4125 101.186 7.90164C100.901 8.39078 100.75 8.94583 100.746 9.51163Z" fill="#FF9B0B"/>
<path d="M11.5677 26.1754L23.6559 1.98109C23.9526 1.38595 24.4092 0.885291 24.9746 0.535339C25.5401 0.185387 26.1919 0 26.8568 0C27.5218 0 28.1736 0.185387 28.739 0.535339C29.3044 0.885291 29.7611 1.38595 30.0577 1.98109L42.1459 26.1754C42.4168 26.7205 42.544 27.3258 42.5156 27.9338C42.4872 28.5418 42.3041 29.1326 41.9836 29.6501C41.6631 30.1676 41.2158 30.5947 40.684 30.891C40.1523 31.1873 39.5537 31.343 38.945 31.3433H14.7686C14.1599 31.343 13.5613 31.1873 13.0296 30.891C12.4979 30.5947 12.0506 30.1676 11.73 29.6501C11.4095 29.1326 11.2264 28.5418 11.198 27.9338C11.1696 27.3258 11.2968 26.7205 11.5677 26.1754Z" fill="#FF9B0B"/>
<path d="M0.381555 89.0075L5.87976 102.197C6.25164 103.093 6.88065 103.858 7.68738 104.397C8.49411 104.936 9.4424 105.224 10.4125 105.224H20.2307C21.2008 105.224 22.1491 104.936 22.9559 104.397C23.7626 103.858 24.3916 103.093 24.7635 102.197L30.2617 89.0075C30.6738 88.0242 30.7546 86.9334 30.4918 85.9001C30.2291 84.8668 29.6371 83.9472 28.8053 83.2802L18.3816 74.951C17.5123 74.258 16.4334 73.8806 15.3216 73.8806C14.2098 73.8806 13.131 74.258 12.2616 74.951L1.83793 83.2802C1.00617 83.9472 0.414163 84.8668 0.151412 85.9001C-0.111338 86.9334 -0.0305535 88.0242 0.381555 89.0075Z" fill="#FF9B0B"/>
<path d="M73.8806 150C82.5358 150 89.5522 142.984 89.5522 134.328C89.5522 125.673 82.5358 118.657 73.8806 118.657C65.2254 118.657 58.209 125.673 58.209 134.328C58.209 142.984 65.2254 150 73.8806 150Z" fill="#FF9B0B"/>
<path d="M130.656 103.778L121.619 91.7214C121.149 91.0956 120.896 90.3345 120.896 89.5523C120.896 88.7701 121.149 88.009 121.619 87.3832L130.656 75.3267C130.993 74.8777 131.43 74.5133 131.932 74.2623C132.434 74.0113 132.987 73.8806 133.549 73.8806C134.11 73.8806 134.663 74.0113 135.165 74.2623C135.667 74.5133 136.104 74.8777 136.441 75.3267L145.479 87.3832C145.948 88.009 146.202 88.7701 146.202 89.5523C146.202 90.3345 145.948 91.0956 145.479 91.7214L136.441 103.778C136.104 104.227 135.667 104.591 135.165 104.842C134.663 105.093 134.11 105.224 133.549 105.224C132.987 105.224 132.434 105.093 131.932 104.842C131.43 104.591 130.993 104.227 130.656 103.778Z" fill="#FF9B0B"/>
</svg>
