<svg width="30" height="30" viewBox="0 0 30 30" fill="none" xmlns="http://www.w3.org/2000/svg">
<path d="M15.0781 0.390625C15.6624 0.390625 16.2228 0.622739 16.636 1.03591C17.0491 1.44907 17.2812 2.00945 17.2812 2.59375V12.875H27.5625C28.1468 12.875 28.7072 13.1071 29.1203 13.5203C29.5335 13.9334 29.7656 14.4938 29.7656 15.0781C29.7656 15.6624 29.5335 16.2228 29.1203 16.636C28.7072 17.0491 28.1468 17.2812 27.5625 17.2812H17.2812V27.5625C17.2812 28.1468 17.0491 28.7072 16.636 29.1203C16.2228 29.5335 15.6624 29.7656 15.0781 29.7656C14.4938 29.7656 13.9334 29.5335 13.5203 29.1203C13.1071 28.7072 12.875 28.1468 12.875 27.5625V17.2812H2.59375C2.00945 17.2812 1.44907 17.0491 1.03591 16.636C0.622739 16.2228 0.390625 15.6624 0.390625 15.0781C0.390625 14.4938 0.622739 13.9334 1.03591 13.5203C1.44907 13.1071 2.00945 12.875 2.59375 12.875H12.875V2.59375C12.875 2.00945 13.1071 1.44907 13.5203 1.03591C13.9334 0.622739 14.4938 0.390625 15.0781 0.390625Z" fill="#FFC97A"/>
</svg>
