<svg width="30" height="30" viewBox="0 0 30 30" fill="none" xmlns="http://www.w3.org/2000/svg">
<circle cx="15" cy="11.25" r="5.625" fill="#FFC97A"/>
<rect x="6.25" y="22.5" width="17.5" height="3.75" rx="1.875" fill="#FFC97A"/>
<path d="M5.25001 24.6295C5.25 24.6302 5.25 24.6309 5.25 24.6316L6.75 24.6337L5.25001 24.6295Z" fill="#FFC97A" stroke="#FFC97A" stroke-width="3"/>
<mask id="path-4-inside-1_98_6031" fill="white">
<path fill-rule="evenodd" clip-rule="evenodd" d="M15 28.5C22.4557 28.5 28.5 22.4557 28.5 15C28.5 7.54425 22.4557 1.5 15 1.5C7.54425 1.5 1.5 7.54425 1.5 15C1.5 22.4557 7.54425 28.5 15 28.5ZM15 30C23.2845 30 30 23.2845 30 15C30 6.7155 23.2845 0 15 0C6.7155 0 0 6.7155 0 15C0 23.2845 6.7155 30 15 30Z"/>
</mask>
<path fill-rule="evenodd" clip-rule="evenodd" d="M15 28.5C22.4557 28.5 28.5 22.4557 28.5 15C28.5 7.54425 22.4557 1.5 15 1.5C7.54425 1.5 1.5 7.54425 1.5 15C1.5 22.4557 7.54425 28.5 15 28.5ZM15 30C23.2845 30 30 23.2845 30 15C30 6.7155 23.2845 0 15 0C6.7155 0 0 6.7155 0 15C0 23.2845 6.7155 30 15 30Z" fill="#FFC97A"/>
<path d="M15 31.5C24.1126 31.5 31.5 24.1126 31.5 15H25.5C25.5 20.7989 20.7989 25.5 15 25.5V31.5ZM31.5 15C31.5 5.8874 24.1126 -1.5 15 -1.5V4.5C20.7989 4.5 25.5 9.2011 25.5 15H31.5ZM15 -1.5C5.8874 -1.5 -1.5 5.8874 -1.5 15H4.5C4.5 9.2011 9.2011 4.5 15 4.5V-1.5ZM-1.5 15C-1.5 24.1126 5.8874 31.5 15 31.5V25.5C9.2011 25.5 4.5 20.7989 4.5 15H-1.5ZM15 33C24.9414 33 33 24.9414 33 15H27C27 21.6276 21.6276 27 15 27V33ZM33 15C33 5.05865 24.9414 -3 15 -3V3C21.6276 3 27 8.37235 27 15H33ZM15 -3C5.05865 -3 -3 5.05865 -3 15H3C3 8.37235 8.37235 3 15 3V-3ZM-3 15C-3 24.9414 5.05865 33 15 33V27C8.37235 27 3 21.6276 3 15H-3Z" fill="#FFC97A" mask="url(#path-4-inside-1_98_6031)"/>
<ellipse cx="15" cy="26.5625" rx="7.5" ry="2.8125" fill="#FFC97A"/>
</svg>
